<?xml version="1.0" encoding="utf-8"?>
<!-- Generator: Adobe Illustrator 24.2.3, SVG Export Plug-In . SVG Version: 6.00 Build 0)  -->
<svg version="1.1" id="Layer_1" xmlns="http://www.w3.org/2000/svg" xmlns:xlink="http://www.w3.org/1999/xlink" x="0px" y="0px"
	 viewBox="0 0 299.2 97" style="enable-background:new 0 0 299.2 97;" xml:space="preserve">
<style type="text/css">
	.st0{fill:#FFFFFF;}
</style>
<g>
	<path class="st0" d="M62.4,40c-0.1-0.4-0.2-1.5-0.4-3.2c-0.2-1.5-0.3-2.7-0.5-3.6c-0.2,1.1-0.5,2.3-0.9,3.4
		c-0.4,1.1-0.8,2.3-1.4,3.5L46.1,66.7L33,39.5c-0.5-1.1-1-2.2-1.4-3.2c-0.4-1-0.7-2.1-1-3.1c0,1-0.1,2.1-0.3,3.3
		c-0.1,1.2-0.4,2.4-0.7,3.6l-5.4,24.6h-7.5l11.8-52.2l14.8,31.6c0.2,0.5,0.6,1.3,1,2.5c0.5,1.2,1,2.6,1.7,4.3
		c0.5-1.4,1.2-3.3,2.3-5.5c0.3-0.6,0.5-1,0.6-1.4l14.4-31.5l12.1,52.2h-7.6L62.4,40z"/>
	<path class="st0" d="M89.6,42.3v22.4H82v-50h11.3c3.3,0,5.9,0.2,7.7,0.6c1.8,0.4,3.4,1.2,4.7,2.2c1.5,1.2,2.7,2.8,3.6,4.7
		s1.3,4,1.3,6.3c0,4-1,7.1-2.9,9.4c-1.9,2.3-4.8,3.6-8.6,4.1l17.2,22.8h-9.2L90.5,42.3H89.6z M90.1,36h1.5c4.3,0,7.2-0.5,8.6-1.5
		c1.4-1,2.1-2.8,2.1-5.3c0-2.8-0.8-4.7-2.3-5.8s-4.3-1.7-8.4-1.7h-1.5V36z"/>
	<path class="st0" d="M121.5,60.9c0-1.3,0.4-2.3,1.3-3.2c0.9-0.9,1.9-1.3,3.2-1.3c1.3,0,2.3,0.4,3.2,1.3c0.9,0.9,1.3,2,1.3,3.2
		c0,1.2-0.4,2.3-1.3,3.1c-0.9,0.9-1.9,1.3-3.2,1.3c-1.3,0-2.3-0.4-3.2-1.3C122,63.2,121.5,62.1,121.5,60.9z"/>
	<path class="st0" d="M152,64.7v-50h27.9v6.9h-19.8V34h19.8v7.1h-19.8v23.5H152z"/>
	<path class="st0" d="M241.3,64.7l16.2-26.2l-14.4-23.9h8.5l7.2,12.2c0.4,0.6,1.1,2,2.2,4c0.2,0.5-1.6,0.8-1.5,1
		c0.4-0.7,2.8-1.5,3.2-2.3c0.4-0.8,1-1.7,1.5-2.6l7.6-12.3h8.3l-14.6,23.7l15.8,26.3h-9l-8.4-14.2c0,0-0.1-0.1-0.1-0.2
		c-0.9-1.7-1.8-3.3-2.5-4.8c-0.4,0.8-0.8,1.6-1.3,2.4c-0.5,0.8-0.9,1.7-1.5,2.5L250,64.7H241.3z"/>
</g>
<g>
	<path class="st0" d="M189,12.1c-0.3,0.9-0.5,1.3-0.5,1.7c0,6.1-0.1,12.2,0,18.2c0,0.9,1.1,2.1,2,2.5c6.6,2.9,13.2,5.6,19.9,8.2
		c1.2,0.5,2.8,0.5,4,0c6.5-2.6,12.9-5.4,19.4-8c2-0.8,2.5-1.9,2.4-3.9c-0.1-5,0-9.9-0.1-14.9c0-1.1-0.1-2.3-0.2-3.8
		c-7,3.3-13.5,6.2-19.9,9.5c-2.5,1.3-4.5,1.4-7,0C202.5,18.4,195.8,15.4,189,12.1z M240.4,85.3c0.6-10-1.5-17.8-9.2-23.4
		c-6.5-4.8-14.2-6.7-21.6-9.3c-6.8-2.5-13.5-5-19-9.9c-0.6-0.5-1.2-0.9-2.4-1.8c0.2,3.4,0.2,6.1,0.6,8.8c1.4,9.1,7.5,14.2,15.4,17.6
		C216.3,72.5,229.8,74.9,240.4,85.3z M235.9,54c0-5,0-9.3,0-14c-5.3,2.4-10.3,4.6-15.9,7C225.7,49.5,230.6,51.7,235.9,54z"/>
	<path class="st0" d="M189,12.1c6.9,3.3,13.5,6.3,20,9.7c2.5,1.3,4.5,1.2,7,0c6.4-3.2,12.9-6.2,19.9-9.5c0.1,1.6,0.2,2.7,0.2,3.8
		c0,5-0.1,9.9,0.1,14.9c0,2-0.4,3.1-2.4,3.9c-6.5,2.5-12.9,5.4-19.4,8c-1.2,0.5-2.8,0.4-4,0c-6.7-2.6-13.3-5.4-19.9-8.2
		c-0.9-0.4-2-1.6-2-2.5c-0.2-6.1-0.1-12.1,0-18.2C188.5,13.4,188.7,13,189,12.1z"/>
	<path class="st0" d="M240.4,89.3c-10.6-10.4-24.1-16.8-36.3-22.1c-7.9-3.4-14-8.5-15.4-17.6c-0.4-2.6-0.4-5.4-0.6-8.8
		c1.3,0.9,1.9,1.4,2.4,1.8c5.5,4.9,12.2,7.4,19,9.9c7.4,2.7,15.1,4.6,21.6,9.3C238.9,67.5,241,79.3,240.4,89.3z"/>
	<path class="st0" d="M235.9,54c-5.3-2.3-10.2-4.5-15.9-7c5.6-2.5,10.6-4.7,15.9-7C235.9,44.7,235.9,49,235.9,54z"/>
</g>
<g>
	<path class="st0" d="M38.3,73.2l-4.9,14.7h-2.2l-4-11.7l-4,11.7h-2.2L16,73.2h2.2l4,11.9l4.1-11.9h1.9l4.1,12l4.1-12H38.3z"/>
	<path class="st0" d="M43.1,73.2h2.1v14.7h-2.1V73.2z"/>
	<path class="st0" d="M64.5,73.2v14.7h-1.7l-8.8-11v11h-2.1V73.2h1.7l8.8,11v-11H64.5z"/>
	<path class="st0" d="M81.8,86.1v1.8H71.1V73.2h10.4V75h-8.3v4.5h7.4v1.8h-7.4v4.7H81.8z"/>
	<path class="st0" d="M97.3,87.9l-3.2-4.5c-0.4,0-0.7,0-0.9,0h-3.6v4.5h-2.1V73.2h5.7c1.9,0,3.4,0.5,4.5,1.4
		c1.1,0.9,1.6,2.2,1.6,3.8c0,1.1-0.3,2.1-0.8,2.9c-0.6,0.8-1.4,1.4-2.4,1.7l3.5,4.9H97.3z M96.1,80.8c0.7-0.6,1.1-1.4,1.1-2.5
		c0-1.1-0.4-1.9-1.1-2.4s-1.7-0.9-3-0.9h-3.6v6.6h3.6C94.4,81.6,95.4,81.3,96.1,80.8z"/>
	<path class="st0" d="M110.3,82.8v5.1h-2.1v-5.1l-5.8-9.6h2.2l4.7,7.7l4.7-7.7h2.1L110.3,82.8z"/>
	<path class="st0" d="M129.5,87.5c-1-0.3-1.8-0.8-2.4-1.3l0.8-1.6c0.6,0.5,1.3,0.9,2.2,1.2c0.9,0.3,1.8,0.5,2.7,0.5
		c1.2,0,2.1-0.2,2.7-0.6c0.6-0.4,0.9-1,0.9-1.6c0-0.5-0.2-0.9-0.5-1.2c-0.3-0.3-0.7-0.6-1.2-0.7s-1.2-0.4-2-0.6
		c-1.1-0.3-2-0.5-2.7-0.8c-0.7-0.3-1.3-0.7-1.7-1.2c-0.5-0.6-0.7-1.3-0.7-2.2c0-0.8,0.2-1.5,0.6-2.1s1-1.1,1.9-1.5
		c0.8-0.4,1.9-0.6,3.1-0.6c0.9,0,1.7,0.1,2.6,0.3c0.8,0.2,1.6,0.5,2.2,1l-0.7,1.7c-0.6-0.4-1.3-0.7-2-0.9s-1.4-0.3-2.1-0.3
		c-1.2,0-2.1,0.2-2.7,0.7c-0.6,0.4-0.9,1-0.9,1.7c0,0.5,0.2,0.9,0.5,1.2c0.3,0.3,0.8,0.6,1.2,0.7c0.5,0.2,1.2,0.4,2,0.6
		c1.1,0.3,2,0.5,2.7,0.8c0.7,0.3,1.2,0.7,1.7,1.2c0.5,0.5,0.7,1.3,0.7,2.2c0,0.8-0.2,1.5-0.6,2.1c-0.4,0.6-1.1,1.1-1.9,1.5
		c-0.9,0.4-1.9,0.6-3.2,0.6C131.6,88.1,130.5,87.9,129.5,87.5z"/>
	<path class="st0" d="M156.3,73.2v14.7h-2.1v-6.6h-8.4v6.6h-2.1V73.2h2.1v6.3h8.4v-6.3H156.3z"/>
	<path class="st0" d="M165.6,87.1c-1.2-0.7-2.1-1.6-2.8-2.7s-1-2.4-1-3.8c0-1.4,0.3-2.7,1-3.8s1.6-2,2.8-2.7c1.2-0.7,2.5-1,4-1
		c1.5,0,2.8,0.3,4,1s2.1,1.5,2.8,2.7c0.7,1.1,1,2.4,1,3.9c0,1.4-0.3,2.7-1,3.9c-0.7,1.1-1.6,2-2.8,2.7s-2.5,1-4,1
		C168.1,88.1,166.8,87.7,165.6,87.1z M172.5,85.4c0.9-0.5,1.5-1.2,2-2c0.5-0.9,0.7-1.8,0.7-2.9c0-1.1-0.2-2-0.7-2.9
		c-0.5-0.9-1.2-1.5-2-2c-0.9-0.5-1.8-0.7-2.9-0.7s-2.1,0.2-2.9,0.7c-0.9,0.5-1.6,1.2-2.1,2c-0.5,0.9-0.7,1.8-0.7,2.9
		c0,1.1,0.2,2,0.7,2.9c0.5,0.9,1.2,1.5,2.1,2c0.9,0.5,1.9,0.7,2.9,0.7S171.6,85.9,172.5,85.4z"/>
	<path class="st0" d="M193,74.6c1.1,0.9,1.6,2.2,1.6,3.8c0,1.6-0.5,2.8-1.6,3.8c-1.1,0.9-2.6,1.4-4.5,1.4h-3.6v4.5h-2.1V73.2h5.7
		C190.5,73.2,192,73.6,193,74.6z M191.5,80.8c0.7-0.6,1.1-1.4,1.1-2.4c0-1.1-0.4-1.9-1.1-2.4s-1.7-0.9-3-0.9h-3.6v6.6h3.6
		C189.8,81.6,190.8,81.3,191.5,80.8z"/>
</g>
</svg>
