<?xml version="1.0" encoding="utf-8"?>
<!-- Generator: Adobe Illustrator 24.2.3, SVG Export Plug-In . SVG Version: 6.00 Build 0)  -->
<svg version="1.1" xmlns="http://www.w3.org/2000/svg" xmlns:xlink="http://www.w3.org/1999/xlink" x="0px" y="0px"
	 viewBox="0 0 469.6 671.4" style="enable-background:new 0 0 469.6 671.4;" xml:space="preserve">
<style type="text/css">
	.st0{display:none;}
	.st1{fill:#A08D90;}
	.st2{fill:#DCC3C5;}
	.st3{fill:#D1B285;}
	.st4{fill:#F4DCDF;}
	.st5{fill:#BEA5A7;}
	.st6{fill:#AD9295;}
	.st7{fill:#E7722B;stroke:#423B3D;stroke-width:0.5;stroke-miterlimit:10;}
	.st8{fill:#61402D;stroke:#38352F;stroke-width:0.5;stroke-miterlimit:10;}
	.st9{fill:#D8BA3D;stroke:#38352F;stroke-width:0.5;stroke-miterlimit:10;}
	.st10{fill:#BAA036;}
	.st11{opacity:0.26;fill:#7A7875;}
	.st12{fill:#FFF4E7;stroke:#423B3D;stroke-width:0.5;stroke-miterlimit:10;}
	.st13{fill:#FFF4E7;}
	.st14{fill:#FDF8F9;}
	.st15{fill:none;stroke:#3D3537;stroke-width:0.5;stroke-miterlimit:10;}
	.st16{fill:#3D3537;stroke:#3D3537;stroke-width:0.5;stroke-miterlimit:10;}
	.st17{fill:none;}
	.st18{fill:#F2F2F2;}
	.st19{display:none;fill:#F4EFED;stroke:#38352F;stroke-width:0.25;stroke-miterlimit:10;}
	.st20{fill:#592D13;}
	.st21{fill:#753C1A;}
	.st22{fill:#F4EFED;}
	.st23{fill:#548960;stroke:#281F1E;stroke-width:0.5;stroke-miterlimit:10;}
	.st24{fill:#E7722B;stroke:#423B3D;stroke-width:0.25;stroke-miterlimit:10;}
	.st25{fill:#513629;stroke:#38352F;stroke-width:0.5;stroke-miterlimit:10;}
	.st26{fill:#443F38;}
	.st27{opacity:0.22;fill:#B7ABAB;stroke:#7A6E6E;stroke-width:0.5;stroke-miterlimit:10;}
	.st28{opacity:0.21;fill:#B7ABAB;stroke:#7A6E6E;stroke-width:0.5;stroke-miterlimit:10;}
	.st29{fill:none;stroke:#ADAAAA;stroke-miterlimit:10;}
	.st30{fill:#D1CFCF;stroke:#ADAAAA;stroke-miterlimit:10;}
	.st31{fill:#822929;}
	.st32{fill:#AD5050;}
	.st33{fill:#EAE8E8;}
	.st34{fill:none;stroke:#303030;stroke-miterlimit:10;}
	.st35{fill:none;stroke:#38352F;stroke-width:0.5;stroke-miterlimit:10;}
	.st36{fill:none;stroke:#3D3A37;stroke-width:0.5;stroke-miterlimit:10;}
	.st37{fill:none;stroke:#3D3A37;stroke-miterlimit:10;}
</style>
<g id="Layer_1" class="st0">
	
		<image style="display:inline;overflow:visible;" width="1509" height="1973" xlink:href="5372800_so.jpg"  transform="matrix(0.24 0 0 0.24 77.242 191.8408)">
	</image>
</g>
<g id="Layer_9">
	<path class="st1" d="M221.8,171.7c52.3,6.1,105.1-5.2,157.7-2.8c1.3,0.1,2.7,0.1,3.9,0.6c5.9,2.4,4.3,11,2.2,17
		c-10.5,29.7-9.1,62.2-7.6,93.7c0.7,14.6,1.4,29.2,2.1,43.9c0.3,6.5,0.7,13.3,3.6,19.2c3.3,6.7,9.5,11.5,14.4,17.2
		c12.6,14.6,16.5,34.8,17.9,54c0.6,7.6,0.9,15.4,4.2,22.2c3.3,6.8,10.6,12.4,18,11.1c5.4,6.3,3.5,16.3-1.1,23.2
		c-4.6,6.9-11.5,12.1-16.5,18.7c-3.8,5-6.6,10.7-10.7,15.4c-11.1,12.7-29.3,15.5-46,17.6c-10.8,1.4-21.6,2.7-32.3,4.1
		c-51.7,6.5-104.7,12.9-155.6,1.4c-4.1-0.9-8.3-2.1-11.2-5c-6.6-6.6-3.4-17.6-2.9-26.9c0.6-11.3-3.9-22.8-12-30.7
		c-4.1-4-9.5-8.7-7.8-14.1c1-3.1,4.1-5,6.7-7c11.5-9.3,13.3-25.9,12.8-40.7c-0.5-14.7-2.2-30.5,5-43.4c4.3-7.7,11.5-13.9,13.9-22.5
		c1.2-4.3,1-8.9,0.7-13.4c-2.8-40.5-15.2-79.8-18.9-120.3c-1.3-13.6-1.7-26.9,12.3-32.1C189.5,166.7,206.3,169.9,221.8,171.7z"/>
	<path class="st2" d="M133.4,364.6c-0.3-5-0.4-10.5,3.1-14.1c3.1-3.3,8.1-3.8,12.6-4.1c3.4-0.2,6.7-0.5,10.1-0.7
		c2.1-0.1,4.3-0.2,6.1,0.9c1.3,0.9,2.1,2.3,2.7,3.7c3.3,7.4,3.7,15.6,4.1,23.7c0.9,18.3,1.7,36.6,2.6,54.9c0.2,4.6,0,10.1-3.9,12.6
		c-2.2,1.4-4.9,1.4-7.5,1.5c-5,0.2-17.3,5.6-21.4,3.3c-6.1-3.3-4.5-15.8-4.8-21.3C135.7,404.9,134.5,384.7,133.4,364.6z"/>
	<path class="st2" d="M438.1,364.6c0.3-5,0.4-10.5-3.1-14.1c-3.1-3.3-8.1-3.8-12.6-4.1c-3.4-0.2-6.7-0.5-10.1-0.7
		c-2.1-0.1-4.3-0.2-6.1,0.9c-1.3,0.9-2.1,2.3-2.7,3.7c-3.3,7.4-3.7,15.6-4.1,23.7c-0.9,18.3-1.7,36.6-2.6,54.9
		c-0.2,4.6,0,10.1,3.9,12.6c2.2,1.4,4.9,1.4,7.5,1.5c5,0.2,17.3,5.6,21.4,3.3c6.1-3.3,4.5-15.8,4.8-21.3
		C435.8,404.9,436.9,384.7,438.1,364.6z"/>
	<path class="st2" d="M264.7,456.3c9.5-0.1,19-0.2,28.4-0.4c44.8-0.6,89.5-1.1,134.3-1.7c5.2-0.1,11.8-1.3,12.7-6.4
		c2-0.8,3.2,2.3,3.1,4.5c-0.6,12.6-1.9,25.2-3.9,37.7c-0.7,4.1-1.7,8.6-5,11c-1.9,1.4-4.3,1.9-6.7,2.4c-31.3,5.9-63.4,6.4-95.3,6.9
		c-44.6,0.7-89.3,1.3-133.9,2c-16.9,0.3-33.8,0.5-50.5-1.8c-5-0.7-10.3-1.9-13.4-5.8c-2.5-3.2-3-7.4-3.3-11.4
		c-0.8-8.3-7.4-31.3,0.8-36.3c6.4-3.9,28.3,0.6,35.7,0.6C199.9,457.1,232.3,456.3,264.7,456.3z"/>
	<path class="st2" d="M411.8,551.4c-5.4,1.6-11.2,1.8-16.8,1.9c-56.7,1.6-113.3,3.3-170,4.9c-25.1,0.7-50.7,1.4-75-5.3
		c-3.2-0.9-6.5-2-8.6-4.5c-2-2.4-2.6-5.7-3.1-8.8c-1.4-10.5-1.8-21.2-1.1-31.8c8.8-0.4,17.2,3.1,25.8,5.2c12.4,3,25.3,3.1,38,3.1
		c42.4,0.1,84.9,0,127.3-2.5c21.1-1.2,42.3-3,63.3-5.7c12.1-1.5,41.1-13.3,44.1,3.2C438.6,527.4,427.5,546.8,411.8,551.4z"/>
	<path class="st2" d="M205.3,262.5c-2.3,9.6-4.5,19.2-6.8,28.8c-4.6,19.6-9,41.3,0.7,59c8.3,15.2,25.6,23.8,42.7,26.1
		s34.6-0.9,51.6-4.1c13.4-2.5,26.9-5,40.3-7.5c6.4-1.2,12.9-2.4,18.5-5.8c8.7-5.3,13.7-15.3,15.4-25.4c1.7-10.1,0.5-20.4-0.8-30.5
		c-3.6-29.8-7.2-59.7-10.8-89.5c-0.9-7.8-1.8-16.1,1.2-23.4c2.4-5.8,7.1-12.7,3.2-17.6c-3-3.7-8.7-3.1-13.4-2.2
		c-34.4,6.2-69.5,4.1-104.3,3.5c-7.4-0.1-42.9-4.5-46.5,2.3c-2.7,5.1,12,25.1,13.4,31.3C213.9,225.9,209.5,244.7,205.3,262.5z"/>
	<path class="st3" d="M157.3,580.5c-2.2,7-3.3,14.3-4.5,21.6c-1.7,11-3.4,22-5,33c-0.1,0.9-0.2,1.9,0.3,2.5c0.5,0.6,1.4,0.7,2.2,0.8
		c2.7,0.3,5.5,0.5,8.2,0.8c5.5-24.5,12.8-48.7,21.8-72.1c1-2.6,2-5.5,1-8.1c-2-4.9-13.6-5.5-17.6-2.6
		C158.4,560.4,159.5,573.6,157.3,580.5z"/>
	<path class="st3" d="M412.1,577c2.2,7,3.3,14.3,4.5,21.6c1.7,11,3.4,22,5,33c0.1,0.9,0.2,1.9-0.3,2.5c-0.5,0.6-1.4,0.7-2.2,0.8
		c-2.7,0.3-5.5,0.5-8.2,0.8c-5.5-24.5-12.8-48.7-21.8-72.1c-1-2.6-2-5.5-1-8.1c2-4.9,13.6-5.5,17.6-2.6
		C411,556.9,409.9,570.1,412.1,577z"/>
	<path class="st4" d="M174,444.6c9.2-3.3,16.9-9.7,25.4-14.6c26.4-15.1,58.6-14.4,89-13.3c22.7,0.8,45.4,1.6,68.1,2.5
		c8,0.3,16.8,0.9,22.6,6.4c2.6,2.5,4.4,5.9,6.9,8.5c13.5,13.8,40.7,0.4,54.7,13.7c-15.1,10.5-34.8,10.9-53.2,10.9
		c-40.6,0-81.2,0.1-121.9,0.1c-20.1,0-40.3,0-60.4,0.1c-10.4,0-20.9,0-31.3,0c-7.7,0-23,3-30,0c-5.9-2.5-4.9-5.3,1.9-8.9
		C153.8,445.9,165.3,447.8,174,444.6z"/>
	<path class="st5" d="M166.8,325.1c-5.3-43-8.5-86.2-9.8-129.4c-0.3-9.4,0.6-20.8,9-25.1c6.7-3.5,15.3-0.1,20.1,5.8s6.4,13.6,7.5,21
		c5.7,38.6-0.2,77.8-3.9,116.6c-1,10.2-1.7,20.9,2.1,30.4c1.6,4,3.9,7.7,5.4,11.8c5.2,14.2-0.9,29.9-1.1,45.1
		c-0.1,8.6,1.6,17.5-1.1,25.7c-2.8,8.2-12.7,14.8-20,10.1c0.8-20.3,0-40.7-2.3-60.9c-1-8.9-4.9-16.9-6.4-25.4
		C164.9,342.7,168,334.2,166.8,325.1z"/>
	<path class="st5" d="M373.2,424.9c-4.1-4.9-6.1-11.2-7.4-17.4c-5.6-28.7,5.2-58,5-87.2c-0.1-6.8-0.7-13.6-1.3-20.4
		c-2.3-27.6-2.9-55.4-1.7-83.1c0.5-13.3,1.8-27.5,10.2-37.8c5.2-6.4,14.7-10.7,21.6-6.2c5.8,3.8,7,11.7,7.2,18.7
		c1.9,46.9-8.7,93.5-8.5,140.5c0,3.9,0.2,8.2,2.5,11.4c2.3,3.2,7.6,4.5,10.2,1.6c-9.7,7.7-12.1,21.3-13.2,33.6
		c-1.4,16.1,0.5,33-1.6,48.9C394.3,442,380.1,433.3,373.2,424.9z"/>
	<path class="st6" d="M206,208c2.6,22.7,0.9,45.9-5.1,67.9c-5.5,20.2-14.7,41.1-8.6,61.1c7.1,23.5,33.2,36.6,57.8,38.2
		c24.5,1.6,48.7-5.3,73.1-8.1c14.3-1.6,30.9-3.1,38.8-15.1c4-6.1,4.7-13.6,5.1-20.9c1.4-26.9-0.7-54-6.3-80.3
		c-4.5-21.3-11.1-44.2-1.9-63.9c3.4-7.2,10.8-14.1,18.4-11.6c-9.5,30.4-13.3,62.5-11.2,94.3c1,15,3.3,29.9,3.2,44.9
		c-0.2,36.4-14.1,74.4-0.6,108.2c-41.3-4.3-82.8-6.3-124.3-6c-6,0-12,0.1-17.9,1.3c-13.1,2.6-24.5,10.2-35.5,17.7
		c5.8-5.7,7.2-14.4,7.1-22.5c-0.1-8.1-1.4-16.3,0.1-24.2c0.9-4.7,2.8-9.2,3.1-14c0.7-8.6-3.5-16.7-7.1-24.6c-5-10.6-9.2-22-9.2-33.7
		c0-14.6,6.6-28.3,9.5-42.6c3.9-19.1,1.4-38.8-1.4-58.1c-1-6.7-9.3-37.3-0.7-36.5C201.7,180.1,205.2,201.4,206,208z"/>
</g>
<g id="Layer_2">
	<path class="st7" d="M321.4,391.2c5.1,3.6,7.9,9.5,10.5,15.2c6.4,13.8,12.7,27.7,19.1,41.5c2.7,5.9,5.4,11.8,6.9,18
		c1.6,6.5,1.8,13.3,3.9,19.7c4.4,13.8,16.4,24.1,21.5,37.6c1.7,4.5,2.7,9.6,5.9,13.2c3,3.4,7.7,5.2,10,9.1c1.5,2.7,1.7,6.3,4,8.4
		c4.2,4,12.5,0.5,16.1,5.1c3.2,4.1-0.9,9.8-4.9,13c-3.6,2.9-7.5,5.6-11.5,8c-4.4,2.6-9.3,5-14.5,5c-5.2,0-10.7-2.9-12.2-7.8
		c-0.6-1.8-0.6-3.8-0.8-5.7c-0.7-6-3.4-11.5-6.1-16.9c-7.1-14.2-14.2-28.4-21.3-42.6c-3.4-6.8-6.8-13.7-10.2-20.5
		c-9.7-19.3-19.3-38.7-27.1-58.9c-0.7-1.9-1.5-3.9-1.4-5.9c0.1-2.1,1-4.1,1.6-6.2C313.5,413.1,301.1,376.8,321.4,391.2z"/>
	<path class="st7" d="M255.8,507.8c-0.8,7.5,2.2,0.4-0.8,8.3c-1.9,4.9-1.8,10.7-1.2,15.9c2.9,26.9-2.3,54-9.9,79.9
		c2,0.5,4,0.9,6,1.4c1.3,6.5-0.7,13.6-5.2,18.4c-2.8,3-6.5,5.2-9.4,8.2c-2.8,3.1-4.7,7.7-2.8,11.4c2,3.8,6.8,4.9,11.1,5.2
		c6.3,0.5,12.6,0.2,18.8-0.9c3.2-0.6,6.7-1.4,8.9-3.9c2.1-2.3,2.7-5.6,3.2-8.7c6.9-44.5,10.1-89.5,9.5-134.5
		c-0.1-3.7-0.2-7.6-2.2-10.7c-5-7.6-17.2-5.6-24.2-11.4c-0.7,7.9-1.3,15.8-2,23.7"/>
</g>
<g id="Layer_3">
	<path class="st8" d="M332.1,396.2c-8.5-13.2-18.2-33.7-33.3-45.2c-16.7-12.7-53.9-16.5-56.6,4.7c-2,14.9-14.7,24.4-21,37.6
		c-0.6,1.3-2.5,0.6-2.2-0.8c5-20.4,5.5-42,1.5-62.6c-0.2-1.2-1.8-1.3-2.3-0.2l-21,23.3c-3.4,2.3-10.6,6.5-12.2,2.8
		c-0.2-0.4-0.2,1.4,0,1c2.4-3.5,7.8-8.2,14.1-9.7c7.1-1.6,8.4-9.9,9-23.2c0.7-17,1-33.1,6.7-49.1c2.6-7.4,10.4-15.1,15.4-20.9
		c13.8-16,31.3,0,46.5,6.3c4.7,2,10.4,6,8.7,11c4.1-8.6,11.2-18.6,20-16.1c3.3,0.9,6.3,3.7,9.6,3.5c0.6,0,1.1-0.6,1.1-1.2l0.1-7.3
		c0-1,1.2-1.6,1.9-0.9c7.4,6.3,16,11,25.2,13.8c3.4,1,7,1.9,9.8,4.2c2.3,1.9,3.8,5.3,3.1,8.2c-0.2,0.7,0.4,1.4,1.2,1.4
		c2.8,0.1,5.4,2,7,4.4c2,3,2.6,6.7,3.2,10.3c1.9,12.6,2.8,25.3,2.6,38.1c-0.1,6.8-0.7,14.3-5.1,19.3c-3.8,4.3-6.1,2.9-10.9,7.6
		c-5.1,4.9-2.2,18.4-9.8,21.4c-7.5,2.8-10.5,17.2-12.2,17.6"/>
	<path class="st8" d="M208.1,328.8c-0.2,6.1-0.3,12.6-3.7,17.7c-3.3,4.9-9,7.5-14.4,9.9c-2.6,1.1-5.2,2.3-8,2.5
		c-5.3,0.3-10.2-2.8-14.2-6.3c-1.8-1.6-3.6-3.4-4.6-5.7c-2.5-5.8,1.4-12.2,4.3-17.8c4.8-9.1,7.8-19.1,11-28.9
		c1.8-5.4,2-14.9,7.7-12.8c3.8,1.4,4.1,7.8,9.3,8.6c6.8,1,15.6-8.6,19-13.3C211.4,297.8,208.1,313.2,208.1,328.8z"/>
	<path class="st9" d="M262.6,308.1c-8-6.7-16.7-15.8-14.5-26.2c0.7-3.2,2.3-6.1,2.9-9.3c0.7-4.1-0.5-8.8,1.7-12.4
		c2.9-4.8,9.9-4.3,14.9-2.2c7.2,3.1,13.4,8.6,17.5,15.4c0.6,1,1.3,2.1,2.4,2.1c0.7,0,1.4-0.6,1.9-1.1c3.4-3.5,5.7-8,8.9-11.7
		c3.2-3.7,7.8-6.8,12.6-5.9c2.4,0.4,4.6,1.8,6.4,3.5c8.6,8,9.2,22.6,3.7,33.1c-3.1,5.8-7.6,10.6-12.1,15.3
		c-9.1,9.5-12.5,18.3-22.8,26.3c-2.5-3.8-7.4-6.5-9.4-11C273.9,317.5,267.9,312.5,262.6,308.1z"/>
	<path class="st10" d="M268.5,263.9c2.7-0.2,5.5,0.3,7.9,1.6c4.2,2.2,7.9,6.7,12.6,5.9c4.8-0.8,6.8-6.5,7.2-11.4
		c3.9,0.8,5,5.7,6.3,9.4c2.4,6.9,8.1,12.5,15.1,14.8c4.6,0.2,8.4-4.2,9.1-8.7c0.7-4.5-0.8-9.1-2.7-13.4c-0.2-0.5-0.5-1.1-0.9-1.5
		c-1-0.9-2.5-0.5-3.8-0.3c-4.7,0.5-8.9-2.3-13.2-4.3c-4.2-2-9.9-3-13.2,0.3c-2.1,2.1-3,5.9-6,6.4c-0.9,0.1-1.8-0.1-2.6-0.3
		c-7.8-2.3-14.4-8.9-22.6-9c-1.8,0-3.7,0.4-5.1,1.6c-2.3,2.1-2.1,5.7-2.1,8.9c-0.1,9.2-7.3,18.8,2.5,25.3c7,4.7,8,0.2,8.9-6.3
		C266.2,281.3,267.9,264,268.5,263.9z"/>
	<path class="st8" d="M338.3,276.4c-4.9,0.3-9.9,0.6-14.8,0.8c7.5,3.1,15.1,6.2,22.6,9.3c0.9,0.4,1.8,0.8,2.3,1.7
		c1.4,2.3-0.9,5.2-2.7,7c-33.7,31.9-44.2,26.5-68.6,53.6c0.7-22.5-8.8,11.4,3.8-5.2c12.6-16.6,26.7-32.2,34.2-52.9
		c2.4-6.5,4-13.4,5.6-20.3c1.9-8.1,0.9-14.2-1.7-21.1C329.5,249.9,338.1,264.3,338.3,276.4z"/>
	<path class="st8" d="M229.9,269.7c4.9,0.3,9.9,0.6,14.8,0.8c-7.5,3.1-15.1,6.2-22.6,9.3c-0.9,0.4-1.8,0.8-2.3,1.7
		c-1.4,2.3,0.9,5.2,2.7,7c33.7,31.9,44.2,26.5,68.6,53.6c-0.7-22.5,8.8,11.4-3.8-5.2c-12.6-16.6-26.7-32.2-34.2-52.9
		c-2.4-6.5-4-13.4-5.6-20.3c-1.9-8.1-0.9-14.2,1.7-21.1C238.8,243.2,230.2,257.6,229.9,269.7z"/>
	<path class="st8" d="M307.5,432.4c-0.7-0.7-1.4-1.5-2.2-2.2c-10.6-10.3-40.6-50-54.5-21.5c-4.5,9.2,1.5,24.1,0.6,34.6
		c-0.3,4-4.5,47.6-4.3,47.7c14,1.8,27.5,7.8,38.3,17.1c5.7-12.5,11.3-25,17-37.6c2-4.4,3.9-8.7,5.9-13.1c5-11.2,1-17.2,1.4-27.5
		c0.2-4.8,2.1-9,1.8-14.2c-0.3-5.2-1.7-10.3-1.3-15.6c0.2-2.8,1-5.9,3.2-7.6c4-3.1,9.9-0.4,13.2,3.5c3.2,3.9,5.2,9,9.1,12.1
		c-0.6-13.8-8.3-26.2-16.2-37.5c-7.8-11.1-16.2-22.3-27.7-29.3c-11.5-7-26.9-9.1-38.2-1.8c-13.7,8.9-16.9,27.3-25.3,41.4
		c-2.8,4.7-6.2,9-8.6,14c-9.1,18.6,1.2,44.2,20.5,51.1c3.1,1.1,7.1,1.6,9.3-0.9c1.2-1.3,1.5-3.2,1.6-4.9c0.4-6.8,0.2-12-0.9-18.7
		s0.7-12.8,3.6-19c1.6-3.4,7.2-1.3,10.8-0.5c17.3,3.9,31.1,16.7,44,29c1.9-1.7,3-4.3,2.8-6.9"/>
	<path class="st9" d="M281,262.8c4.2,4.8,8.5,11.9,6.2,18.3c1.8-16.1,11.5-28.9,20.7-40.5c6.5,0.6,11,9,11.3,16.9
		c0.3,8-2.6,15.5-5.4,22.7c-4.1-7-8.8-13.5-14-19.4c-4.8,7-9.2,14.3-13.3,21.9c-3.2-12-12.6-21.3-22.9-22.4
		c-1.6,9.1-3.3,18.2-4.9,27.3c-5.6-3.9-7.1-12.7-10.7-19.2c-4.4-7.8-15.2-26.7,0-22.6C260.3,249.2,271.4,251.8,281,262.8z"/>
	<path class="st8" d="M353.5,372.2c-0.8,1.1-1.7,2.3-2.9,2.9c-2.5,1.3-5.6,0-7.8-1.8c-6.2-5-8.9-13-11.4-20.7
		c-0.3-0.8-0.6-1.7-0.5-2.6c0.1-1,0.7-2,1.4-2.8c2.2-2.4,5.6-3.3,8.8-4.1c4.8-1.2,15.6-27,17-4.1c0.2,2.6,7.9,5,9.2,7.6
		C370.4,352.9,357.1,367.2,353.5,372.2z"/>
	<path class="st11" d="M330.9,309.2c1.2-0.4,1.8,2,1.9,3.8c0.8,10.2,6.3,19.3,5.4,29.4c-5,0.3-9.3,2.7-14,4.5
		c-4.4,1.7-5.3-0.1-4.5-6.5c0.7-5.8,2.9-11.2,4.9-16.2C325.6,321.9,329.4,309.7,330.9,309.2z"/>
</g>
<g id="Layer_10">
	<path class="st7" d="M272,151.7c13.5-4.4,27.8,1,41.7,3.2c0.7,0.1,1.4,0.2,2.1,0.1c1.4-0.2,2.6-1.1,3.8-2c5-4,10.1-8.1,15.1-12.1
		c4.8,3.5,7.1,10,6.6,16.1c-0.5,6.1-3.3,11.8-6.8,16.6c-1,1.3-2,2.7-2.6,4.2c-0.8,2-0.7,4.1-0.7,6.2c0.1,6.2,0.1,12.3,0.2,18.5
		c0,1.9,0,3.8-0.5,5.6c-0.6,1.9-3.7,3.2-3.7,5.2c0.4,12.7-8.6,20.6-16,28.9c-0.8,0.8-1.6,1.7-2.6,2.1c-1.6,0.8-3.4,0.5-5.2,0.4
		c-8.8-1-17.7-1.1-26.5-0.4c-4,0.3-8,0.8-12,0.4c-4-0.4-9.1-1.9-11.6-5.1c-2.8-3.7-2.2-10.4-4.8-14.3
		c-11.1-17.2-17.4-36.8-10.7-56.3c-3.5-1-6.4-3.9-7.4-7.5c-1-3.5-0.4-7.2-0.2-10.9c0.3-5.4-0.5-10.8-2.3-15.9
		c-0.2-0.5-0.4-1.1-0.3-1.7c0.1-0.8,0.8-1.4,1.5-1.6c2.2-0.9,4.6,0.3,6.7,1.2c6.9,2.9,14.6,2.9,21.4,6c6,2.8,10.9,8,13.4,14.3"/>
	<path class="st12" d="M323.4,225c0,0.4-2.8,5.9-4.8,7.9c-1.7,1.7-2.7,4-3.2,5.8c-0.5,1.6-2,3.3-3.1,4c-2.2,1.5-1.8,2.1-4.1,3.4
		l2.5,8.2c-2.8-3-5.2-1.9-9.3-1.8c-4.4,0.1-5.5,11.8-8.1,13.8c-2.8,2.1-1.7,6.6-3.8,9.5c-7.5-7.3-22.2-23.9-32.3-27.3
		c-2.6-0.9-10.7,0-9-2.4c2.3-3.3,2.8-11.9,2.6-15.3c-0.1-2.1-0.6-4.2-1.1-6.2c-1.8-7.3-3.6-14.7-5.3-22c-0.2-0.7-0.3-1.6,0.2-2.2
		c0.7-0.6,1.8-0.3,2.6,0.1c6.8,2.9,13.5,5.8,20.3,8.8c2.5,1.1,5,2.2,7.4,3.6c0.5,0.3,0.9,0.6,1.5,0.8c0.9,0.3,1.9,0.3,2.8,0.3
		c5.6-0.1,11.2-0.1,16.8-0.2c5.8-0.1,11.7-0.1,17.4,0.8c0.6,0.1,1.4,0.3,1.7,0.8c0.3,0.6-0.3,1.4-0.9,1.1c2.1,1.5,8.1-0.5,11.3,2.4
		l-0.6,4.3L323.4,225z"/>
	<path class="st13" d="M241.8,160.8c-2.5-0.8-5.3-1.8-6.4-4.2c-0.6-1.3-0.6-2.7-0.6-4.1c0.1-4.2,0.1-8.4,0.2-12.6
		c4.7,0.6,9.4,1.1,13.7,3.1c4.3,2,8.1,5.6,9.1,10.2c-6,1.1-12.8,2.7-16,7.9"/>
	<path class="st14" d="M323.7,156.8c2.6-0.2,4.2-2.8,5.6-5c1.4-2.2,4-4.4,6.4-3.3c0.4,4.8-0.3,9.6-1.9,14.1
		c-0.5,1.3-1.1,2.6-2.1,3.5c-1.1,0.9-2.7,1.2-3.8,0.5c-0.8-0.6-1.3-1.6-1.6-2.5c-1-2.6-2-5.1-2.9-7.7"/>
	<path class="st15" d="M280.7,217.5c6.8,4.9,14.1,9.9,22.5,10.5c3.6,0.3,7.5-0.2,10.7,1.5c0.6,0.3,1.1,0.7,1.7,0.7
		c0.9,0.1,1.7-0.6,2.4-1.1c2.4-2,4.8-4.1,6.6-6.8c1.7-2.6,0.1-3.4-0.7-6.4"/>
	<path class="st16" d="M310.3,216.2c-0.1-0.2-0.2-0.5-0.2-0.7c-0.1-0.5,0.2-0.9,0.5-1.3c1.6-2.2,4.3-3.2,6.8-2.9s4.8,1.7,6.8,3.5
		c0.7,0.6,1.3,1.5,1.1,2.4c-0.1,0.4-0.5,0.7-0.8,1c-1.3,1.1-2.7,2-4,3.1c-1,0.8-2.6,3.2-3.7,3.5
		C314.2,225.3,311.3,218.2,310.3,216.2z"/>
	<path class="st15" d="M263,226c3.3,1.9,6.5,3.8,9.8,5.7c6.1,3.6,12.3,7.2,19.2,8.7c3.6,0.8,7.4,1.1,11,2.2c2.2,0.7,4.4,1.7,6.7,1.4
		c2.5-0.4,4.5-2.5,5.5-4.8c1-2.3,1.2-5,1.4-7.5c0-0.2,0-0.5-0.1-0.6c-0.3-0.3-0.9-0.2-1,0.2c-1.1,5.1-12,4.4-15.8,1
		c-5.9-5.5-9.5-7.4-12.1-9.7"/>
	<path class="st17" d="M279.6,221.3c0.6,0,1.1,0.3,1.5,0.6"/>
	<circle class="st16" cx="304.5" cy="220.4" r="0.7"/>
	<circle class="st16" cx="299.3" cy="217.5" r="0.8"/>
	<circle class="st16" cx="297.5" cy="220.6" r="0.9"/>
	<circle class="st16" cx="304.5" cy="216.6" r="0.7"/>
	<path class="st18" d="M327.9,161.7c0.3-0.2,0.5-0.4,0.7-0.7c1.6-2,3.1-4.2,3.5-6.7c0.1-0.8,0.1-1.6,0.3-2.4
		c0.2-1.1,0.7-2.2,1.2-3.3c-2.2,0.5-4.6,1.1-5.7,3.1c-0.8,1.4-0.9,3.3-2.3,3.9c-0.8,0.3-1.7,0.2-2.3,0.8c-0.6,0.7-0.2,1.7,0.2,2.5
		C324.3,160.9,325.5,163,327.9,161.7z"/>
	<path class="st15" d="M308.6,182c0.1,4.5,1.3,9.2,1.7,13.7c4.8,6.9,9.8,13.7,14.8,20.4"/>
</g>
<g id="Layer_4">
	<path class="st19" d="M255.1,235.8c-0.9,0.2-1.2-1.3-0.7-2.1c0.5-0.8,1.3-1.6,0.9-2.5c-0.3-0.7-1.2-0.9-1.9-1.1
		c-3.2-1.1-4-5.2-3.8-8.6c0.3-5.1,1.7-10.1,4.1-14.6c11.7,4.8,24,9.7,36.6,8.4c2.8-0.3,5.8-0.8,8.2,0.6c2,1.2,3,3.6,4.4,5.6
		s3.5,3.9,5.8,3.3c2-0.5,3.1-2.7,4.3-4.4c1.2-1.7,3.5-3.3,5.3-2.1c1.3,0.9,1.3,2.7,1.3,4.2c-0.1,4.2-0.5,8.8-3.5,11.8
		c-1,1-2.2,1.7-3.1,2.6c-2.2,2.4-2.5,6.3-0.6,8.9c-2.6,1.7-7.3-0.4-8.5,2.4c-0.4,0.8-0.2,1.7-0.4,2.6c-0.6,2.5-3.5,3.5-5.9,4.3
		c-5.2,1.9-9.9,5.4-13.2,9.9c-2.4-1.7-4-4.4-4.3-7.3c-2.5-0.5-5.1-0.9-7.6-1.4c0.8-0.4-0.2-1.5-1.1-1.7c-2.7-0.7-5.4-1.3-8.1-2
		c0.9-0.8,0.3-2.5-0.8-3c-1.1-0.5-2.4-0.3-3.6,0c0.1-0.8-0.1-1.7-0.5-2.4c-2.3-0.2-4.6-0.4-6.9-0.5
		C252,246.9,254.7,236.5,255.1,235.8z"/>
	<path class="st20" d="M282.6,173.3c-3.1-0.1-6.1-0.2-9.2-0.2c0.4,0,0.5,0.5,0.3,0.9c-0.2,0.3-0.6,0.4-0.9,0.5
		c-0.9,0.3-1.9,0.6-2.8,0.8c-0.6,0.9-1.6,1.3-2.6,1.2c0.9,0.5,0,1.9-0.8,2.5c-2.4,1.8-4.7,3.6-7.1,5.3c4.3-0.6,7.9-3.3,11.7-5.4
		s8.7-3.2,12.2-0.7C291.8,184.2,288.6,173.5,282.6,173.3z"/>
	<path class="st21" d="M309.4,181.8c-0.3-0.1-0.6-0.2-0.7-0.4c-0.1-0.3,0-0.6,0.1-0.8c0.8-1.9,2.1-3.8,4-4.6
		c2.1-0.9,4.8-0.3,6.4,1.4c0.8,0.8,1.3,1.9,2.2,2.7c1.3,1.2,3.2,1.6,5,2.2s3.6,1.6,4,3.4l-17.9-5.1L309.4,181.8z"/>
	<path class="st16" d="M300.5,227.9c3.5,0.5,6.5,0,10,0.3c1.4,0.2,2.8,0.4,4,1.2c0.4,0.3,0.7,0.6,0.8,1c0.1,0.4-0.1,0.9-0.4,1.2
		c-1.1,1.6-3,2.6-4.9,3c-1.9,0.4-3.9,0.3-5.8,0.2c-0.7,0-1.5-0.1-2.2-0.4c-0.5-0.2-0.9-0.6-1.2-1c-1.8-1.8-10.4-8.3-12.9-10.9
		C290.4,223.7,297.3,227.3,300.5,227.9z"/>
</g>
<g id="Layer_5">
	<path class="st20" d="M285.2,183.7c-2.1-1.6-5-2-7.6-1.6c-2.6,0.4-5.1,1.5-7.5,2.7c-1.6,0.8-3.3,1.6-4.3,3.1c0.1,0.7,1,1,1.6,0.9
		c0.7-0.1,1.2-0.6,1.8-1c2.8-2.1,6.4-3.1,9.9-2.7c3.3,0.3,5.9,1.9,8.5,3.8C288.9,187.5,286.3,184.6,285.2,183.7z"/>
	<path class="st21" d="M316.4,189.4c0.9-0.1,1.8-0.2,2.6,0c0.5,0.1,1,0.4,1.5,0.6c2.7,1.6,4.6,4.6,4.9,7.7c-0.7,0-1.4,0-2.2,0
		c-0.2,0-0.4,0-0.6-0.1c-0.3-0.2-0.4-0.5-0.4-0.9c-0.5-2.8-2.5-5.6-5.3-5.9c-2.1-0.3-4.1,0.8-6.1,1.3
		C311,190.3,314.8,189.6,316.4,189.4z"/>
	<path class="st22" d="M286.6,190.1c0.4,0.6,0.7,1.3,0.9,2c0.1,0.2,0.1,0.5,0.1,0.7c-0.1,0.3-0.3,0.5-0.6,0.7
		c-2.6,1.9-6.2,2.3-9.3,1.3c-3.1-1-5.7-3.2-7.5-5.9c1.9-1.8,4.6-2.8,7.2-3c2.6-0.2,5.3,0.4,7.7,1.4c0.5,0.2,1.1,0.5,1.4,0.9
		c0.3,0.4,0.5,0.9,0.7,1.4c0.4,1.3,0.6,2.7,0.7,4.1"/>
	<path class="st22" d="M316.8,191.3c0.7,0,1.3,0,2,0.3c1.1,0.4,1.9,1.2,2.4,2.2c0.5,1,0.8,2.1,1,3.2c0.1,0.4,0.1,0.8-0.1,1.2
		c-0.1,0.3-0.4,0.5-0.7,0.6c-1.6,1-3.6,1.4-5.5,1c-1-0.2-1.9-0.6-2.7-1.1c-1-0.6-2-1.4-2.5-2.5C308.6,191.9,314,191.2,316.8,191.3z"
		/>
	<path class="st23" d="M316.4,191.9c1.3,1.8,1.1,4.5-0.4,6.1c-0.4,0.4-0.9,0.7-1.5,0.8c-0.9,0-1.6-0.6-2.2-1.3
		c-0.9-1-1.9-2.1-1.6-3.4c0.3-1.5,2-2.1,3.5-2.4c0.7-0.1,1.5-0.2,1.9,0.3"/>
	<path class="st23" d="M273.7,191.4c0.5,1.1,1.5,2.1,2.7,2.5c1.5,0.4,3.1-0.3,4-1.5s1.1-2.9,0.6-4.4c-0.2-0.5-0.4-1.1-0.8-1.5
		c-0.7-0.6-1.7-0.7-2.6-0.7C273.2,186,271.7,187.3,273.7,191.4z"/>
	<path class="st16" d="M276.7,191.3c-1.2,0-2.1-1.3-1.9-2.4c0.2-1.1,1.5-1.9,2.6-1.6s1.8,1.6,1.5,2.7c-0.3,1.1-1.7,1.8-2.8,1.5"/>
	<path class="st16" d="M312.4,192.6c0.6,0.2,1.2,0.5,1.6,1c0.4,0.5,0.5,1.2,0.3,1.7c-0.3,0.6-1,1-1.7,1c-0.7-0.1-1.3-0.5-1.6-1.1
		c-0.4-0.8-0.2-1.8,0.4-2.5c0.1-0.1,0.2-0.2,0.3-0.2c0.4-0.1,0.7,0.1,1,0.3"/>
	<path class="st20" d="M268.7,149.2c-2.8-2.9-4.4-6.9-7.6-9.3c-2-1.5-4.3-2.2-6.7-2.9c-6.4-2-12.8-4-19.3-6
		c-2.1-0.7-4.3-1.3-6.6-1.5c0.1,0.5,0.2,1.1,0.3,1.6c-1,0-1.9,0-2.9,0.1c0.3,0.8,1.1,1.3,1.5,2.1c0.3,0.6,0.5,1.3,0.6,1.9
		c0.7,4.3,1.4,8.5,1.5,12.8c0.1,3.8-0.2,7.7,0.5,11.4c0.7,3.8,2.6,7.5,6,9.3c-4.2-4.4-4.8-11-4.6-17.1c0.2-6.1,0.9-12.4-1.5-18
		c6.4,4.1,14.4,4.9,21.6,7.6c7.1,2.7,13.4,7.3,18.1,13.2c0.4-5.6-3-11.3-8.1-13.6"/>
	<path class="st21" d="M332.4,141c0.3-0.4,0.5-0.7,1-0.8c0.4-0.1,0.7,0.1,1,0.3c1.5,1,2.4,2.6,3.3,4.1c1.4,2.5,2.8,5,3.4,7.8
		c0.6,2.8,0.2,5.9-1.7,8c1.1-5-0.6-10.6-4.5-14.1c-0.4-0.4-0.9-0.7-1.4-0.9c-0.6-0.2-1.3,0-2,0.2c-4.4,1.4-8.3,4.1-11.2,7.7
		c-0.5,0.6-4.3,5.1-5.2,3.2c-0.5-0.9,3.3-3.9,3.8-4.5C322.9,147.7,329,145.6,332.4,141z"/>
	<path class="st15" d="M285.9,281.1c2,17.9-4.7,35,0,50.2"/>
	<circle class="st16" cx="292.8" cy="289.8" r="2.6"/>
	<circle class="st16" cx="292.6" cy="308.1" r="2.9"/>
</g>
<g id="Layer_11">
	<path class="st13" d="M310.8,231.6c0.6-0.2,1.2-0.4,1.8-0.7c0.6-0.3,1.5-0.5,1.8,0c0.2,0.4-0.1,0.7-0.3,1.1
		c-0.8,1.5-2.7,1.8-4.5,1.9c-1.1,0.1-7.9-0.3-7.5-1.2C303.6,229.3,309.2,232,310.8,231.6z"/>
</g>
<g id="Layer_12">
	<path class="st11" d="M298,196.8c-1.9-2.2-3.8-4.5-4.4-7.3c-0.9-4,1.2-8.5-0.8-12.1c-0.9-1.6-2.4-2.8-3.8-4.1
		c-2.4-2.2-4.3-4.8-5.9-7.6c-1.3-2.3-2.4-4.7-3.9-6.9c-1.6-2.5-3.6-4.7-5.6-6.9c-3-3.3-6-6.7-9.8-9.2c-4.2-2.8-9.2-4.4-14.1-6
		c-5-1.6-10-3.2-15-4.8c-2.3-0.7-4.9-1.4-7-0.3c0.4,6.4,0.9,12.8,1.3,19.2c0.2,3.5,0.5,7,1.6,10.4c1.1,3.6,3.7,7.2,7.6,7.7
		c-0.8,1.1-1.1,2.5-1.4,3.9c-2.8,14.2-0.8,29.2,5.8,42.2c2.7,5.4,7.9,10,8.6,16.1c0.7,5.8-0.7,9.6-2.9,15.3
		c3.5,0.1,11.1,2.5,14.6,2.6c0.9,0,1.9,0,2.6-0.4c0.8-0.5,1.2-1.3,1.6-2.1c1.9-4.1,3.7-8.2,5.3-12.4c10,4.1,20.7,6.6,31.6,7.2
		c1.2,0.1,2.5,0.1,3.6-0.4c1.8-0.9,2.5-2.9,3.1-4.7c1.7-4.6,4.4-8.9,7.7-12.5c1.6-1.8,3.5-4.1,2.3-6.1c-0.4-0.8-1.3-1.3-2-1.7
		c-3.4-2.1-7.7-3.5-10.4-6.5C304.9,205.1,301.5,201,298,196.8z"/>
	<path class="st11" d="M268.3,502.8c0.4,6.1-1.8,12-2.9,18c-1.7,8.7-1.2,17.6-1.3,26.5c-0.6,30.6-9.2,61.5-2.4,91.3
		c0.9,4.2,2.1,8.8-0.2,12.4c-2.2,3.5-6.9,4.5-11,5.1c-4.1,0.6-8.4,1.3-12.4,0.2s-7.7-4.5-7.9-8.6c-0.1-3.6,2.4-6.8,5.3-9
		c2.9-2.2,6.2-3.7,8.9-6.2c2.2-2,3.9-4.5,5.4-7.1c1.6-2.8,3.1-6,2.5-9.2c-0.6-3.2-4-6.1-7-4.9c0.1-5.1,3.2-9.7,4.9-14.5
		c1.6-4.6,2.1-9.4,2.4-14.3c1.6-20.8,2.2-41.7,1.9-62.5c-0.1-8.1-1.4-18.9,2.2-26.4C260.8,485.1,268,497.1,268.3,502.8z"/>
	<path class="st11" d="M359,511.6c3,6,6.3,11.8,10.3,17.2c2.4,3.2,5.1,6.3,7.4,9.6c5.1,7.5,8.1,16.6,14.8,22.8c2.7,2.5,6,4.4,8.6,7
		c2.6,2.6,4.5,6.4,3.7,10c-4.4,2.2-9,4.4-13.9,4.8c-4.9,0.5-10.4-1.2-13-5.4c-2.6-4.1-2-9.3-3.3-14c-2-7.2-8.3-12.5-10.8-19.6
		c-1.4-3.9-1.4-8.3-2.8-12.2c-1.9-5.2-6-9.2-9-14c-2.8-4.5-4.4-9.7-6.5-14.6c-4.6-11.3-11.3-21.6-16.9-32.4
		c-3.9-7.5-7.3-15.2-10.5-23.1c-2-4.9-3.9-9.8-5.1-14.9c-2.4-9.8-3.1-22.1-1.1-32c5.6,2.4,10.2,19.6,12.6,25.3
		c4,9.7,7.8,19.4,11.6,29.2C342.3,474.3,349.7,493.4,359,511.6z"/>
</g>
<g id="Layer_13">
	<path class="st15" d="M390,584.8c1.3-0.3,2.6-0.5,4-0.8c1.2-0.2,2.4-0.5,3.3-1.3c1.4-1.3,1.6-3.5,1.3-5.4c-0.5-3.5-2.1-6.9-5-8.9
		c-1.6-1.1-3.9-1.6-5.5-0.5"/>
	<path class="st15" d="M409.7,575.9c2.1-1.5,3.1-4.3,2.8-6.8c-0.3-2.6-1.8-4.9-3.9-6.4c-2.1-1.5-4.7-2.1-7.3-2.1"/>
	<path class="st16" d="M391.8,573.4c1.8,0.2,3.2,1.7,3.6,3.5c0.4,1.7,0,3.5-0.8,5.1c-0.3,0.7-1.1,1.2-1.5,0.3"/>
	<path class="st16" d="M410.3,572.9c-0.2,0.8-0.7,1.5-1.4,1.8c-0.1,0-0.2,0.1-0.3,0c-0.2-0.1-0.2-0.3-0.2-0.5c0.4-3.3-1-6.7-3.6-8.7
		c1.9,0,4-0.8,5.1,1.3"/>
	<path class="st16" d="M412.3,560.5c0.9,0.8,2.9,0.6,4,1.6c0.5,0.4,2.7,2.8,1.9,3.5"/>
	<path class="st15" d="M257.9,655.9c-0.9,0.4-2-0.2-2.5-1.1c-0.5-0.9-0.5-1.9-0.5-2.9c0.1-3.2,0.6-6.7,3.1-8.6"/>
	<path class="st15" d="M244.6,656.2c-1.4,0.5-3-0.1-4-1.2c-1-1.1-1.5-2.6-1.5-4c-0.1-4.2,3.1-8,6.9-9.7"/>
	<path class="st16" d="M235.9,647.6c-0.4,1.1-0.6,2.3-0.4,3.5c0.1,0.4,0.2,0.8,0.4,1.1c0.3,0.3,0.8,0.4,1.1,0.1
		c-0.1-1.9,0.2-3.8,0.8-5.6c-1.2-0.5-2.6,0.5-2.7,1.8"/>
	<path class="st16" d="M247,648.3c-1.4,0.4-2.1,2.1-1.7,3.5s1.5,2.5,2.7,3.3c0.4-2.6,0.8-5.2,1.9-7.6c-1.8-0.7-4.1,0.3-4.9,2.1"/>
	<path class="st16" d="M255.9,650.9c-0.5,1.3,0,3,1.2,3.6c0-0.9-0.1-1.8,0.1-2.7c0.1-0.4,0.8-1.7,0.7-2
		C257.5,648.2,256.2,650,255.9,650.9z"/>
</g>
<g id="Layer_14">
	<path class="st11" d="M229.2,269.6c5.4-0.6,10.8-0.5,16.2,0.3c-8.6,4.3-17.4,8.1-26.3,11.5c6,8.3,12.3,16.4,18.8,24.3
		c2,2.4,4,4.8,5,7.7c0.8,2.3,1,4.8,1.1,7.3c0.7,11.3,1.3,23-2.7,33.7c6-1.1,11.7,2.9,16.5,6.7c7.7,6.1,15.4,12.2,22.3,19.2
		c8.3,8.3,15.6,17.8,21.4,28.1c3.8,6.7,7.1,14.2,6.3,21.8c-8.3,3.5-18.6-1.4-26.7,2.7c-4.7,2.4-7.6,7.2-9.9,11.9
		c-3.7,7.4-6.7,15.1-9.1,23.1c-1.2,3.9-2.4,8.1-5.6,10.6c-3.2,2.5-9.1,1.6-9.9-2.4c-0.2-0.9-0.1-1.9,0.1-2.8
		c1.4-10.8,2.9-21.7,4.3-32.5c-11.5,2.9-23.7-4.7-29.2-15.1s-5.7-22.9-4-34.7c1.7-11.7,5-23.2,6-35c0.9-11.4-0.4-23.1-4-34
		c-2.2-6.9-5.4-13.5-6.9-20.6c-4.1-18.8,5.2-43.1,23.3-51.7C232.7,256.1,229.5,261.9,229.2,269.6z"/>
	<path class="st11" d="M192.1,300.4c0.1,13-0.9,26.2,1,39.1c0.7,5,1.8,10.6-1,14.8c-2.7,4-8.2,5.3-12.8,4.2c-4.7-1.1-8.6-4.2-12-7.5
		c-2.5-2.4-4.9-5.2-5.3-8.6c-0.6-5.2,3.5-9.6,6.3-14.1c3.3-5.2,4.9-11.2,6.5-17.1c1.6-5.8,2.4-16.9,7.5-20.9
		C188.6,285.3,192.1,295.8,192.1,300.4z"/>
	<path class="st24" d="M189.6,274.8c0.5-14.8,3.8-26.3-0.7-43.1c-0.7-2.5,2.3-7.2,0.9-9.7c-0.9-1.7-2.5-3-3.6-4.5
		c-3.1-4.3-3-10-2.8-15.3c0-0.6,0.1-1.2,0.5-1.6c0.7-0.6,1.7-0.2,2.4,0.3c0.7,0.5,1.4,1.2,2.3,1.2c0.5,0,0.9-0.2,1.4-0.2
		c1.3,0,2,1.4,2.2,2.7c0.4,2.1,0.2,4.2,0.4,6.3c0.3,2.1,1.2,4.3,3.1,5.2c1.3,0.6,2.9,0.6,4.4,0.4c1.8-0.1,3.6-0.3,5.5-0.4
		c0.5,0,1-0.1,1.4,0.1c1.3,0.5,1.3,2.4,0.3,3.4c-1,1-2.4,1.1-3.8,1.1c-1.3,0-2.8-0.1-4,0.4c-0.5,0.2-1,0.5-1.3,1
		c-0.4,0.8-0.1,1.7,0.2,2.5c2.2,4.8,7.1,8.3,7.7,13.5c2.3-3,3.4-5.6,3.8-9.3c0.1-1.3,0.3-3.2,0.5-4.5c0.4-2.1,2.7-4,4.6-5.1
		c2.9,12.4,1.7,25.7,0.3,38.5c-0.4,3.5-0.9,7-1,10.5c0,1.9,0.1,3.9-0.3,5.8c-0.3,1.5-0.8,3-1.4,4.4c-1.3,3.3-2.6,6.6-3.9,10
		c-0.4,1.1-0.9,2.3-1.8,3.1c-0.7,0.6-1.5,0.9-2.3,1.2c-2,0.7-4,1.3-6,1.8c-0.8,0.2-1.6,0.4-2.4,0.2c-1-0.2-1,0.8-2.4,0.1
		c-3.8-2-6.5-6.3-6-9.4C188.6,281.8,189.5,278.6,189.6,274.8z"/>
	<path class="st25" d="M189.1,240.5c4.3-5.1,8.6-10.1,12.9-15.2c1.2-1.4,2.4-2.9,3.8-4.1c1.4-1.4,3-2.6,4.5-4c1.6-1.5,3-3.1,4.3-4.9
		c0.5-0.7,1-1.4,1.6-1.8c0.7-0.5,1.6-0.7,2.3-0.3c0.9,0.4,1.2,1.6,1,2.6s-0.9,1.8-1.5,2.6c-6.1,7.5-12.2,15.1-18.3,22.6
		c-1.3,1.6-2.5,3.1-3.9,4.6c-0.7,0.7-1.4,1.4-2.3,1.8c-2,0.8-4.5-0.6-4.8-2.7c-0.1-0.3-0.1-0.7,0.1-1c0.4-1,2-0.8,2.9-0.1
		c1.1,0.9,1.8,2.3,1.9,3.7c-0.5,0.2-1,0.3-1.5,0.5"/>
</g>
<g id="Layer_17">
	<g id="Layer_16">
		
			<ellipse transform="matrix(0.558 -0.8298 0.8298 0.558 -116.1157 266.2613)" class="st26" cx="191.9" cy="242.1" rx="2" ry="3.5"/>
		<path class="st27" d="M146,245.8c-6.5,1-13.3,2.7-19.4,0.2c-6.1-2.4-9.8-11.4-4.7-15.6c-0.9,2.8,0.9,5.9,3.5,7.3
			c2.6,1.4,5.7,1.3,8.6,0.9c12.9-1.8,24.4-10.5,30.6-22.1s7-25.5,3.4-38c-7.2,11.5-4.7,28.8-15.6,36.8c0.5-7.7,0.9-15.4,1.4-23
			c0.1-1.6,0.1-3.3-0.8-4.5c-1.3-1.6-3.7-1.7-5.6-2.5c-5.3-2.2-6.4-9.6-11.3-12.6c-3.1-1.9-7-1.5-10.7-1.3
			c-13.1,0.5-26.5-3.6-36.5-12.2s-16-21.8-15-34.9c0.6-8.1,3.8-15.8,7.3-23.1c2.7-5.8,5.8-11.7,10.7-15.8c4.3-3.6,9.7-5.5,14.7-8.1
			c7.2-3.8,13.6-9,18.7-15.4c2,5.9-3.2,11.6-7.9,15.7c-4.7,4.1-9.3,8.2-14,12.3c-4.4,3.8-9,7.9-11,13.4c-1.4,3.9-1.4,8.2-0.8,12.2
			c2.6,18.2,17.8,34,36,37.3c7.9,1.4,16.8,1,22.9,6.2c1.2,1,2.2,2.2,3.6,3c7.1,3.8,15.6-7.2,22.9-3.8c4.5,2,5.2,8,5,13
			c-0.8,17.5-5.3,34.8-13.3,50.4c-1.3,2.5-2.7,5.2-2.1,8c0.9,4.2,5.7,6.1,9.8,7.7c2.6,1,8.8,4.4,7.8,8.1c-0.9,3.4-10.2,2.5-12.8,2.1
			C162.4,245.9,155.3,244.4,146,245.8z"/>
		<path class="st28" d="M124.4,196.4c-4.2-8.5-15.2-10.4-24.6-11.9c-21.2-3.4-42.4-10.6-58.8-24.4c-4-3.4-8.2-7.3-13.4-7.9
			c-1.1,4.1,2.3,7.9,5.5,10.6c14.8,12.3,32.7,20.7,51.6,24.4c5.9,1.2,12.4,2.1,16.6,6.5c4.9,5.1,4.8,13.1,4.4,20.2
			c0.3-4.7,19.6,3.2,21.2,2.9C127.2,210.8,127.1,202,124.4,196.4z"/>
		<path class="st28" d="M119.2,27.4c0.8-0.6,2.1,0.1,2.4,1.1s-0.1,2-0.4,3c-1.5,3.9-3,7.9-4.5,11.8c-2.5,6.7-5.9,10.9-11.3,15.4
			c-2,1.7-0.7,4.7-4,4c-1.9-0.4-3-3.3-2.9-5c0.4-4.4,11.1-8.5,13.8-12C116.3,40.6,117.8,33.7,119.2,27.4z"/>
		<path class="st29" d="M353.8,259.1c-4.1,7.6-7.6,15.5-10.4,23.7c-0.7,2-1.4,4.1-1.4,6.2c-0.1,9.5,11.7,15.1,13.7,24.4
			c0.5,2.3,0.4,4.6,0.2,6.9c-0.6,10-1.5,20-2.5,30"/>
		<path class="st29" d="M382.3,264.1c0.7,5.8,1.4,11.7,2.1,17.5c0.9,7.2,1.4,15.5-3.6,20.7c-2.3,2.4-5.5,3.8-8.5,5.3
			c-3,1.5-5.9,3.3-8.6,5.3c-1.7,1.2-1.9,3-2.8,5c-0.7,1.4-0.9,3.1-1.1,4.7c-1.1,9.2-2.1,18.4-3.2,27.6"/>
		
			<ellipse transform="matrix(0.2143 -0.9768 0.9768 0.2143 34.3928 564.9597)" class="st29" cx="368.4" cy="261.1" rx="4" ry="14.8"/>
		<ellipse transform="matrix(0.128 -0.9918 0.9918 0.128 -45.806 662.9309)" class="st30" cx="354.1" cy="357.5" rx="2" ry="16"/>
		<path class="st29" d="M353.2,349.7c-5.1,1.1-10.1,2.7-14.9,4.8"/>
		<path class="st29" d="M370.3,358.8c-4.7-2.5-8.4-6.7-13.2-9.2"/>
		<path class="st31" d="M384.2,292.8c-0.4,4.4-1.5,6.9-4.6,9.1c-4.5,3.1-9,6.2-14.5,6.5c-2.5,0.1-5.1,0.1-7.6,0
			c-2,0-4.2-3.2-5.6-4.7c-0.7-0.8-1.1,0.1-1.6-0.9c-1-1.8-2.5-2.2-3.8-3.9c-2.2-2.8-6.1-11.2-3.3-14.4c3-3.5,8.8,3.2,12,4.5
			C364.3,292.8,374.5,294.2,384.2,292.8z"/>
		<path class="st32" d="M345.5,281.4c1.6-1.4,4.1-0.4,6,0.5c4.6,2.2,9.6,3.4,14.7,3.6c3.5,0.1,7-0.3,10.4,0.6
			c3.4,0.8,6.7,3.2,7.2,6.6c0.4,2.4-21.7-0.2-23.5-0.8C357.7,291.2,340.9,285.6,345.5,281.4z"/>
		<path class="st33" d="M367,277.8c0,2.7,0,5.5-0.3,8.1c-0.6,4.2-2.2,7.7-3.5,11.4c-5.8,15.5-8.2,34.4-6.7,52.4
			c0.3-1.3,0.4-2.7,0.5-4.1c0.3-5.5,0.9-10.9,1.4-16.4c0.2-2.2,0.4-4.4,0.8-6.5c0.4-2.3,0.9-4.6,1.6-6.8c0.5-1.8,1.2-3.5,2.1-4.8
			c1.9-2.9,4.8-3.5,6.9-6.1c2.8-3.5,3.5-9.9,3.6-15.7c0-6.9-0.7-13.8-2.2-20.3c-0.1-0.5-0.2-1.1-0.5-1.4c-0.2-0.3-0.6-0.5-0.9-0.6
			c-1.8-0.6-2.6-1.3-2.8,1.9C366.8,271.8,367,275,367,277.8z"/>
	</g>
	<path class="st7" d="M367.2,328.1c-5.1-4-10.7-7.4-16.6-10.1c1.3-1.4,3.2-1.9,5.1-1.9s3.7,0.6,5.5,1.2c3.5,1.1,7.1,2.2,10.6,3.3
		c3.6,1.1,7.9,2.9,8.5,6.7c0.2,1.2,0,2.5-0.3,3.6c-0.4,1.3-1,2.7-2.1,3.5c-1.1,0.8-2.8,0.9-3.7-0.1c-0.2,2.1,0.7,4.1,0.8,6.2
		c0.1,2.1-1.4,4.7-3.5,4.2c1,1.7-1.1,3.9-3.1,3.8s-3.6-1.6-5-3c-1.1-1-2.1-2.1-3.2-3.1c-0.5-0.5-1-1-1.2-1.6c-0.3-0.6-0.3-1.3-0.4-2
		c-0.2-4-0.1-8,0.4-11.9c0.2-1.3,0.6-2.8,1.9-3.1"/>
	<path class="st7" d="M350.8,317.9c-1.1,1.6-0.3,3.8,0.6,5.6c0.8,1.5,1.6,3.1,2.3,4.6c0-1.4,1-2.2,1-3.7c0-1.6,0-3.4-0.8-4.6
		c-0.8-1.1-2.1-1.4-3.4-1.4c-0.8,3.7,1,8,4,9.5"/>
	<path class="st17" d="M359.1,342.1c1.6,1.7,3.1,3.4,4.7,5.1c0.4,0.5,0.9,1,1.5,1.2c1.4,0.7,3,0.1,4.4-0.5c0.7-0.3,1.4-0.6,1.7-1.2
		c0.4-0.6,0.2-1.5-0.5-1.7c1.9,0.5,3.9-1,4.5-2.8s0.3-3.8-0.1-5.6c-0.2-1.2-0.6-2.5-1.7-3c0.8,0.3,1.4,0.9,2.2,1.3
		c0.8,0.4,1.8,0.6,2.5,0.1c0.4-0.3,0.6-0.8,0.8-1.3c1.2-3.1,2.2-6.8,0.1-9.3c-0.9-1.1-2.3-1.7-3.6-2.3c-6.2-2.8-12.6-5.2-19.1-7.1
		c-0.9-0.3-4.1-0.1-4.9,0.3c-0.9,0.4-1.5,1.4-1.2,2.2c0.2,0.5,0.6,0.8,1,1.1c5.2,4,10.8,7.6,16.6,10.7"/>
	<path class="st34" d="M368.1,339.3c-2.8-2-5.6-4.1-8.4-6.1"/>
	<path class="st11" d="M353.8,318.8c6.6,3.3,13,7,19,11.2c0.5,0.3,0.9,0.7,1.2,1.2c0.3,0.5,0.3,1.1,0.3,1.6c0,3.2,0,6.4,0,9.7
		c0,0.6,0,1.2-0.4,1.7c-0.3,0.4-0.8,0.6-1.3,0.8c-2.1,0.8-4.2,1.6-6.3,2.4c-0.2,0.1-0.5,0.2-0.8,0.1c-0.3-0.1-0.5-0.3-0.6-0.6
		c-0.8-1.1-1.5-2.1-2.3-3.2c-0.6-0.9-1.3-1.8-1.6-2.8c-0.3-0.9-0.3-1.9-0.3-2.8c0-5.1,0.9-10.3-0.8-15"/>
	<path class="st16" d="M355.3,317.4c-2.1-0.1-4.1-1-5.6-2.5c2,0.1,3.9,1.1,5.1,2.7"/>
	<path class="st35" d="M332.8,312.2c3.2,9.1,5.2,18.5,6.2,28.1"/>
</g>
<g id="Layer_15">
	<path class="st36" d="M188.4,284.8c0.4-3.5,0.8-7.1,1.3-10.6c1.2-10.5,2.5-21.2,0.9-31.7c-0.5-3.7-1.4-7.3-1.6-10.9
		c-0.2-3.7,0.4-7.6,2.5-10.6c4.1-5.9,13.2-6.6,19.4-2.9c-0.9-0.2-1.7-0.4-2.6-0.5c0,1.9-2,3.2-3.8,3.5s-3.7-0.1-5.6,0.1
		c-1.9,0.2-3.9,1.2-4.3,3.1c-0.3,1.4,0.5,2.7,1.1,3.9c9.1,17.3,12.9,26.4,15.2,35.9"/>
	<path class="st36" d="M206.9,242.8c-0.5-2.4-0.2-5,0.8-7.2c0.7-1.5,1.7-2.8,2-4.4c0.3-1.3,0.1-2.7,0.4-4c0.5-3.1,2.9-5.6,5.1-7.8
		c1.9,5.6,1.6,11.7,1.4,17.6c-0.1,2.6-0.3,5.2-0.4,7.9c-0.3,5.7-0.6,11.5-1.3,17.2c-0.4,2.7-0.9,5.4-0.7,8c0.1,1.8,0.6,3.7,0.2,5.5
		c-0.4,2.3-2,4.2-3,6.3c-1.5,3.1-1.8,6.8-4.3,9.1c-2.2,2.1-5.5,2.5-8.3,3.7c-1.7,0.8-3.5,2.7-5.3,2.1c-2.5-0.9-4.8-6.3-5.6-9.1"/>
	<path class="st36" d="M188.8,221.4c-1.3-1.9-2.5-3.7-3.8-5.6c-0.4-0.6-0.8-1.1-1-1.8c-0.2-0.6-0.2-1.2-0.2-1.8
		c-0.1-4.2-0.2-8.4-0.2-12.6c0-0.8,0-1.6,0.3-2.3c0.2,0.7,0.3,1.5,0.2,2.3c1.9-0.2,3.7,1,4.6,2.7c0.9,1.7,1,3.6,0.8,5.5
		c0,0.4-0.1,0.9,0,1.3c0.2,0.5,0.5,0.9,0.9,1.2c1.6,1.8,3,3.8,3.9,6"/>
	<path class="st37" d="M198.5,223.6c1.1,4.6,4.7,8.2,7.3,12"/>
	<path class="st36" d="M189.9,203c0.4-0.3,0.9-0.6,1.3-0.9c-0.2,0.7,0.1,1.5,0.3,2.2c0.8,2.2,1,4.6,0.6,7"/>
	<path class="st11" d="M191.9,224c-0.9,2.4-0.8,5-0.6,7.5c0.5,5.5,1.8,10.9,3.3,16.2c0.7,2.6,1.5,5.2,3.2,7.4c1.3,1.7,2.9,3,4.5,4.4
		c2.8,2.6,5.3,5.8,6,9.5c0.8,4-0.4,8.2-2.5,11.7c-2.1,3.5-5.1,6.5-8.1,9.4c-1.1,1.1-2.2,2.2-3.3,3.2c-0.4,0.4-0.8,0.8-1.3,1
		c-0.2,0.1-0.5,0.1-0.8,0.1c-3,0.1-5.1-3-5.1-5.9c-0.1-2.8,1.3-5.5,2-8.3c1.6-6.2,0.1-12.8,1.2-19.1c0.6-3.3,2-6.6,2-10
		c0.1-3.1-0.9-6.2-1.8-9.2c-1.2-4.5-2.2-9.1-1.4-13.7c0.4-2.5,1.4-4.9,3-7c0.7-0.9,4.6-5.1,5.6-3.4C195.2,219.4,193,221.2,191.9,224
		z"/>
</g>
</svg>
